<?xml version="1.0" encoding="iso-8859-1"?>
<!-- Generator: Adobe Illustrator 18.0.0, SVG Export Plug-In . SVG Version: 6.00 Build 0)  -->
<!DOCTYPE svg PUBLIC "-//W3C//DTD SVG 1.1//EN" "http://www.w3.org/Graphics/SVG/1.1/DTD/svg11.dtd">
<svg version="1.1" id="Capa_1" xmlns="http://www.w3.org/2000/svg" xmlns:xlink="http://www.w3.org/1999/xlink" x="0px" y="0px" viewBox="0 0 54 54" style="enable-background:new 0 0 54 54;" xml:space="preserve" data-ember-extension="1">
<g>
	<rect style="fill:#07b2cd;" width="18" height="54"/>
	<rect x="18" style="fill:#2d7487;" width="18" height="54"/>
	<rect x="36" style="fill:#07b2cd;" width="18" height="54"/>
	<rect x="4" y="4" style="fill:#FFFFFF;" width="10" height="20"/>
	<rect x="22" y="4" style="fill:#FFFFFF;" width="10" height="20"/>
	<rect x="40" y="4" style="fill:#FFFFFF;" width="10" height="20"/>
	<g>
		<circle style="fill:#2d7487;" cx="9" cy="44" r="5"/>
		<path style="fill:#ECF0F1;" d="M9,50c-3.309,0-6-2.691-6-6s2.691-6,6-6s6,2.691,6,6S12.309,50,9,50z M9,40c-2.206,0-4,1.794-4,4    s1.794,4,4,4s4-1.794,4-4S11.206,40,9,40z"/>
	</g>
	<g>
		<circle style="fill:#07b2cd;" cx="27" cy="44" r="5"/>
		<path style="fill:#ECF0F1;" d="M27,50c-3.309,0-6-2.691-6-6s2.691-6,6-6s6,2.691,6,6S30.309,50,27,50z M27,40    c-2.206,0-4,1.794-4,4s1.794,4,4,4s4-1.794,4-4S29.206,40,27,40z"/>
	</g>
	<g>
		<circle style="fill:#2d7487;" cx="45" cy="44" r="5"/>
		<path style="fill:#ECF0F1;" d="M45,50c-3.309,0-6-2.691-6-6s2.691-6,6-6s6,2.691,6,6S48.309,50,45,50z M45,40    c-2.206,0-4,1.794-4,4s1.794,4,4,4s4-1.794,4-4S47.206,40,45,40z"/>
	</g>
</g>
<g>
</g>
<g>
</g>
<g>
</g>
<g>
</g>
<g>
</g>
<g>
</g>
<g>
</g>
<g>
</g>
<g>
</g>
<g>
</g>
<g>
</g>
<g>
</g>
<g>
</g>
<g>
</g>
<g>
</g>
</svg>