<?xml version="1.0" encoding="iso-8859-1"?>
<!-- Generator: Adobe Illustrator 19.0.0, SVG Export Plug-In . SVG Version: 6.00 Build 0)  -->
<svg xmlns="http://www.w3.org/2000/svg" xmlns:xlink="http://www.w3.org/1999/xlink" version="1.1" id="Capa_1" x="0px" y="0px" viewBox="0 0 512 512" style="enable-background:new 0 0 512 512;" xml:space="preserve" width="512px" height="512px">
<g>
	<g>
		<path d="M263.031,119.98h-60.003c-41.355,0-75.004,33.649-75.004,75.004c0,31.438,20.099,59.725,50.026,70.359    c5.977,2.124,9.977,7.793,9.977,14.137v29.298l34.397-34.397c2.813-2.813,6.621-4.395,10.606-4.395h30.001    c41.355,0,75.004-33.649,75.004-75.004C338.034,153.628,304.385,119.98,263.031,119.98z M173.026,209.985    c-8.284,0-15.001-6.716-15.001-15.001c0-8.284,6.716-15.001,15.001-15.001c8.284,0,15.001,6.716,15.001,15.001    C188.027,203.269,181.31,209.985,173.026,209.985z M233.029,209.985c-8.284,0-15.001-6.716-15.001-15.001    c0-8.284,6.716-15.001,15.001-15.001c8.284,0,15.001,6.716,15.001,15.001C248.03,203.269,241.313,209.985,233.029,209.985z     M293.032,209.985c-8.284,0-15.001-6.716-15.001-15.001c0-8.284,6.716-15.001,15.001-15.001c8.284,0,15.001,6.716,15.001,15.001    C308.033,203.269,301.316,209.985,293.032,209.985z" fill="#2d7487"/>
	</g>
</g>
<g>
	<g>
		<path d="M499.966,305.278l-41.956-83.896C455.835,83.184,329.832-23.141,188.041,4.355    C99.238,21.597,28.497,93.026,12.002,182.064c-11.617,62.713,2.329,125.06,39.26,175.571    c30.587,41.867,46.76,91.359,46.76,139.365c0,8.291,6.709,15.001,15.001,15.001h210.01c8.291,0,15.001-6.709,15.001-15.001V457.79    c0-4.292,3.501-7.793,7.793-7.793h67.21c24.815,0,45.002-20.187,45.002-45.002v-45.002h8.115c13.185,0,25.211-6.694,32.141-17.916    C505.24,330.841,505.87,317.099,499.966,305.278z M263.031,299.989h-23.79l-55.608,55.608c-4.325,4.325-10.815,5.561-16.349,3.252    c-5.61-2.314-9.258-7.793-9.258-13.858v-55.506c-36.286-17.272-60.003-53.997-60.003-94.502    c0-57.894,47.111-105.005,105.005-105.005h60.003c57.894,0,105.005,47.111,105.005,105.005S320.923,299.989,263.031,299.989z" fill="#07b2cd"/>
	</g>
</g>
<g>
</g>
<g>
</g>
<g>
</g>
<g>
</g>
<g>
</g>
<g>
</g>
<g>
</g>
<g>
</g>
<g>
</g>
<g>
</g>
<g>
</g>
<g>
</g>
<g>
</g>
<g>
</g>
<g>
</g>
</svg>
